<?xml version="1.0" standalone="no"?>
<!DOCTYPE svg PUBLIC "-//W3C//DTD SVG 20010904//EN"
 "http://www.w3.org/TR/2001/REC-SVG-20010904/DTD/svg10.dtd">
<svg version="1.0" xmlns="http://www.w3.org/2000/svg"
 width="300.000000pt" height="300.000000pt" viewBox="0 0 300.000000 300.000000"
 preserveAspectRatio="xMidYMid meet">
<metadata>
Created by potrace 1.14, written by Peter Selinger 2001-2017
</metadata>
<g transform="translate(0.000000,300.000000) scale(0.100000,-0.100000)"
fill="#000000" stroke="none">
<path d="M866 2993 c-3 -4 -16 -8 -28 -10 -30 -5 -119 -57 -154 -91 -58 -56
-115 -132 -153 -204 -34 -65 -88 -198 -96 -238 -2 -8 -8 -33 -14 -55 -5 -22
-12 -53 -15 -70 -3 -16 -8 -44 -10 -61 -18 -101 -24 -263 -14 -349 19 -160
149 -339 298 -412 l58 -28 -3 -75 c-2 -41 -7 -151 -10 -245 -8 -194 -10 -242
-21 -485 -7 -175 -10 -470 -4 -502 2 -9 19 -39 39 -65 52 -69 124 -103 212
-99 57 3 74 8 120 39 50 33 96 92 107 137 2 8 4 62 4 120 0 97 -3 186 -18 515
-3 66 -7 163 -9 215 -12 320 -17 425 -21 432 -4 7 61 45 79 46 9 1 91 65 122
96 70 70 133 185 153 281 11 47 9 293 -2 341 -2 12 -7 39 -10 60 -9 62 -27
134 -51 209 -99 306 -276 492 -480 501 -39 2 -75 1 -79 -3z"/>
<path d="M1719 2993 c0 -4 -2 -51 -4 -103 -2 -52 -6 -185 -10 -295 -12 -311
-13 -334 -15 -435 -3 -129 6 -183 45 -265 39 -81 98 -148 176 -198 54 -34 55
-36 53 -79 -1 -23 -5 -110 -9 -193 -3 -82 -8 -195 -10 -250 -5 -108 -13 -294
-20 -470 -2 -60 -4 -110 -5 -110 -2 0 -11 -263 -11 -320 0 -91 13 -132 56
-183 96 -114 264 -120 369 -13 25 25 46 51 47 56 1 6 6 21 11 35 12 28 13 139
4 340 -10 224 -14 328 -21 490 -3 85 -8 193 -10 240 -2 47 -7 162 -10 256 l-6
170 58 36 c32 20 72 51 88 70 33 36 86 115 90 132 1 6 7 25 14 41 29 71 30
132 5 775 -4 85 -7 183 -8 218 l-1 62 -77 0 c-43 0 -78 -3 -79 -7 -1 -11 -6
-120 -14 -363 -4 -113 -9 -234 -10 -270 -1 -36 -4 -111 -6 -166 l-3 -102 -57
2 c-32 1 -60 4 -64 7 -3 4 -8 75 -10 160 -3 85 -7 226 -11 314 -6 163 -12 334
-13 393 l-1 32 -94 0 -93 0 -2 -52 c-1 -29 -4 -98 -6 -153 -2 -55 -6 -192 -10
-305 -4 -113 -9 -236 -10 -275 -2 -38 -4 -81 -4 -95 -1 -25 -3 -26 -63 -25
l-62 0 -2 60 c-1 33 -5 143 -8 245 -4 102 -9 250 -12 330 -3 80 -6 172 -7 205
l-2 60 -77 3 c-43 2 -78 -1 -79 -5z"/>
</g>
</svg>
